<mxfile host="Electron" modified="2024-08-26T08:18:15.060Z" agent="Mozilla/5.0 (Windows NT 10.0; Win64; x64) AppleWebKit/537.36 (KHTML, like Gecko) draw.io/22.1.16 Chrome/120.0.6099.109 Electron/28.1.0 Safari/537.36" etag="TSHHj3s4pui-TLa8dALk" version="22.1.16" type="device">
  <diagram name="Page-1" id="T6yWICMJUPlmsX4xK1CY">
    <mxGraphModel dx="2634" dy="1316" grid="1" gridSize="10" guides="1" tooltips="1" connect="1" arrows="1" fold="1" page="1" pageScale="1" pageWidth="400" pageHeight="180" math="0" shadow="0">
      <root>
        <mxCell id="0" />
        <mxCell id="1" parent="0" />
        <mxCell id="A5oisQulZktVafH1AsK--35" value="&lt;b&gt;/&lt;/b&gt;&lt;font color=&quot;#b5739d&quot;&gt;A|B&lt;/font&gt;&lt;b&gt;/&lt;/b&gt;" style="text;strokeColor=none;align=center;fillColor=none;html=1;verticalAlign=middle;whiteSpace=wrap;rounded=0;" parent="1" vertex="1">
          <mxGeometry x="-1150" y="-333.5" width="60" height="30" as="geometry" />
        </mxCell>
        <mxCell id="A5oisQulZktVafH1AsK--40" style="rounded=0;orthogonalLoop=1;jettySize=auto;html=1;curved=1;" parent="1" source="A5oisQulZktVafH1AsK--36" target="A5oisQulZktVafH1AsK--54" edge="1">
          <mxGeometry relative="1" as="geometry">
            <mxPoint x="-908.4307415355321" y="-328.17945969414154" as="targetPoint" />
            <Array as="points">
              <mxPoint x="-970" y="-359" />
            </Array>
          </mxGeometry>
        </mxCell>
        <mxCell id="A5oisQulZktVafH1AsK--42" value="A" style="edgeLabel;html=1;align=center;verticalAlign=middle;resizable=0;points=[];" parent="A5oisQulZktVafH1AsK--40" vertex="1" connectable="0">
          <mxGeometry x="-0.1254" y="-9" relative="1" as="geometry">
            <mxPoint x="6" y="-5" as="offset" />
          </mxGeometry>
        </mxCell>
        <mxCell id="A5oisQulZktVafH1AsK--41" style="rounded=0;orthogonalLoop=1;jettySize=auto;html=1;curved=1;" parent="1" source="A5oisQulZktVafH1AsK--36" target="A5oisQulZktVafH1AsK--54" edge="1">
          <mxGeometry relative="1" as="geometry">
            <mxPoint x="-909.0120740645395" y="-306.146330192322" as="targetPoint" />
            <Array as="points">
              <mxPoint x="-980" y="-279" />
            </Array>
          </mxGeometry>
        </mxCell>
        <mxCell id="A5oisQulZktVafH1AsK--43" value="B" style="edgeLabel;html=1;align=center;verticalAlign=middle;resizable=0;points=[];" parent="A5oisQulZktVafH1AsK--41" vertex="1" connectable="0">
          <mxGeometry x="0.0195" y="12" relative="1" as="geometry">
            <mxPoint x="6" y="-12" as="offset" />
          </mxGeometry>
        </mxCell>
        <mxCell id="A5oisQulZktVafH1AsK--36" value="" style="points=[[0.145,0.145,0],[0.5,0,0],[0.855,0.145,0],[1,0.5,0],[0.855,0.855,0],[0.5,1,0],[0.145,0.855,0],[0,0.5,0]];shape=mxgraph.bpmn.event;html=1;verticalLabelPosition=bottom;labelBackgroundColor=#ffffff;verticalAlign=top;align=center;perimeter=ellipsePerimeter;outlineConnect=0;aspect=fixed;outline=standard;symbol=general;" parent="1" vertex="1">
          <mxGeometry x="-1075" y="-333.5" width="30" height="30" as="geometry" />
        </mxCell>
        <mxCell id="A5oisQulZktVafH1AsK--47" style="edgeStyle=orthogonalEdgeStyle;rounded=0;orthogonalLoop=1;jettySize=auto;html=1;exitX=1;exitY=0.5;exitDx=0;exitDy=0;exitPerimeter=0;" parent="1" source="A5oisQulZktVafH1AsK--44" target="A5oisQulZktVafH1AsK--45" edge="1">
          <mxGeometry relative="1" as="geometry" />
        </mxCell>
        <mxCell id="A5oisQulZktVafH1AsK--49" value="A" style="edgeLabel;html=1;align=center;verticalAlign=middle;resizable=0;points=[];" parent="A5oisQulZktVafH1AsK--47" vertex="1" connectable="0">
          <mxGeometry x="-0.1667" y="1" relative="1" as="geometry">
            <mxPoint x="3" y="-8" as="offset" />
          </mxGeometry>
        </mxCell>
        <mxCell id="A5oisQulZktVafH1AsK--44" value="" style="points=[[0.145,0.145,0],[0.5,0,0],[0.855,0.145,0],[1,0.5,0],[0.855,0.855,0],[0.5,1,0],[0.145,0.855,0],[0,0.5,0]];shape=mxgraph.bpmn.event;html=1;verticalLabelPosition=bottom;labelBackgroundColor=#ffffff;verticalAlign=top;align=center;perimeter=ellipsePerimeter;outlineConnect=0;aspect=fixed;outline=standard;symbol=general;" parent="1" vertex="1">
          <mxGeometry x="-1075" y="-274" width="30" height="30" as="geometry" />
        </mxCell>
        <mxCell id="A5oisQulZktVafH1AsK--48" style="edgeStyle=orthogonalEdgeStyle;rounded=0;orthogonalLoop=1;jettySize=auto;html=1;exitX=1;exitY=0.5;exitDx=0;exitDy=0;exitPerimeter=0;" parent="1" source="A5oisQulZktVafH1AsK--45" edge="1">
          <mxGeometry relative="1" as="geometry">
            <mxPoint x="-905" y="-259" as="targetPoint" />
          </mxGeometry>
        </mxCell>
        <mxCell id="A5oisQulZktVafH1AsK--50" value="B" style="edgeLabel;html=1;align=center;verticalAlign=middle;resizable=0;points=[];" parent="A5oisQulZktVafH1AsK--48" vertex="1" connectable="0">
          <mxGeometry x="-0.032" y="-1" relative="1" as="geometry">
            <mxPoint x="-4" y="-10" as="offset" />
          </mxGeometry>
        </mxCell>
        <mxCell id="A5oisQulZktVafH1AsK--45" value="" style="points=[[0.145,0.145,0],[0.5,0,0],[0.855,0.145,0],[1,0.5,0],[0.855,0.855,0],[0.5,1,0],[0.145,0.855,0],[0,0.5,0]];shape=mxgraph.bpmn.event;html=1;verticalLabelPosition=bottom;labelBackgroundColor=#ffffff;verticalAlign=top;align=center;perimeter=ellipsePerimeter;outlineConnect=0;aspect=fixed;outline=standard;symbol=general;" parent="1" vertex="1">
          <mxGeometry x="-985" y="-274" width="30" height="30" as="geometry" />
        </mxCell>
        <mxCell id="A5oisQulZktVafH1AsK--53" value="&lt;b&gt;/&lt;/b&gt;&lt;font color=&quot;#b5739d&quot;&gt;AB&lt;/font&gt;&lt;b&gt;/&lt;/b&gt;" style="text;strokeColor=none;align=center;fillColor=none;html=1;verticalAlign=middle;whiteSpace=wrap;rounded=0;" parent="1" vertex="1">
          <mxGeometry x="-1150" y="-274" width="60" height="30" as="geometry" />
        </mxCell>
        <mxCell id="A5oisQulZktVafH1AsK--54" value="" style="points=[[0.145,0.145,0],[0.5,0,0],[0.855,0.145,0],[1,0.5,0],[0.855,0.855,0],[0.5,1,0],[0.145,0.855,0],[0,0.5,0]];shape=mxgraph.bpmn.event;html=1;verticalLabelPosition=bottom;labelBackgroundColor=#ffffff;verticalAlign=top;align=center;perimeter=ellipsePerimeter;outlineConnect=0;aspect=fixed;outline=throwing;symbol=general;" parent="1" vertex="1">
          <mxGeometry x="-905" y="-333.5" width="30" height="30" as="geometry" />
        </mxCell>
        <mxCell id="A5oisQulZktVafH1AsK--55" value="" style="points=[[0.145,0.145,0],[0.5,0,0],[0.855,0.145,0],[1,0.5,0],[0.855,0.855,0],[0.5,1,0],[0.145,0.855,0],[0,0.5,0]];shape=mxgraph.bpmn.event;html=1;verticalLabelPosition=bottom;labelBackgroundColor=#ffffff;verticalAlign=top;align=center;perimeter=ellipsePerimeter;outlineConnect=0;aspect=fixed;outline=throwing;symbol=general;" parent="1" vertex="1">
          <mxGeometry x="-905" y="-274" width="30" height="30" as="geometry" />
        </mxCell>
        <mxCell id="A5oisQulZktVafH1AsK--56" value="&lt;b&gt;/&lt;/b&gt;&lt;font color=&quot;#b5739d&quot;&gt;A*&lt;/font&gt;&lt;b&gt;/&lt;/b&gt;" style="text;strokeColor=none;align=center;fillColor=none;html=1;verticalAlign=middle;whiteSpace=wrap;rounded=0;" parent="1" vertex="1">
          <mxGeometry x="-1150" y="-214" width="60" height="30" as="geometry" />
        </mxCell>
        <mxCell id="A5oisQulZktVafH1AsK--63" style="edgeStyle=orthogonalEdgeStyle;rounded=0;orthogonalLoop=1;jettySize=auto;html=1;exitX=1;exitY=0.5;exitDx=0;exitDy=0;exitPerimeter=0;" parent="1" source="A5oisQulZktVafH1AsK--57" target="A5oisQulZktVafH1AsK--58" edge="1">
          <mxGeometry relative="1" as="geometry" />
        </mxCell>
        <mxCell id="A5oisQulZktVafH1AsK--64" value="A" style="edgeLabel;html=1;align=center;verticalAlign=middle;resizable=0;points=[];" parent="A5oisQulZktVafH1AsK--63" vertex="1" connectable="0">
          <mxGeometry x="0.0667" y="-1" relative="1" as="geometry">
            <mxPoint x="1" y="8" as="offset" />
          </mxGeometry>
        </mxCell>
        <mxCell id="A5oisQulZktVafH1AsK--57" value="" style="points=[[0.145,0.145,0],[0.5,0,0],[0.855,0.145,0],[1,0.5,0],[0.855,0.855,0],[0.5,1,0],[0.145,0.855,0],[0,0.5,0]];shape=mxgraph.bpmn.event;html=1;verticalLabelPosition=bottom;labelBackgroundColor=#ffffff;verticalAlign=top;align=center;perimeter=ellipsePerimeter;outlineConnect=0;aspect=fixed;outline=throwing;symbol=general;" parent="1" vertex="1">
          <mxGeometry x="-1075" y="-214" width="30" height="30" as="geometry" />
        </mxCell>
        <mxCell id="A5oisQulZktVafH1AsK--58" value="" style="points=[[0.145,0.145,0],[0.5,0,0],[0.855,0.145,0],[1,0.5,0],[0.855,0.855,0],[0.5,1,0],[0.145,0.855,0],[0,0.5,0]];shape=mxgraph.bpmn.event;html=1;verticalLabelPosition=bottom;labelBackgroundColor=#ffffff;verticalAlign=top;align=center;perimeter=ellipsePerimeter;outlineConnect=0;aspect=fixed;outline=throwing;symbol=general;" parent="1" vertex="1">
          <mxGeometry x="-985" y="-214" width="30" height="30" as="geometry" />
        </mxCell>
        <mxCell id="A5oisQulZktVafH1AsK--59" style="rounded=0;orthogonalLoop=1;jettySize=auto;html=1;endArrow=none;endFill=0;startArrow=classic;startFill=1;curved=1;" parent="1" source="A5oisQulZktVafH1AsK--57" target="A5oisQulZktVafH1AsK--58" edge="1">
          <mxGeometry relative="1" as="geometry">
            <Array as="points">
              <mxPoint x="-1011" y="-223" />
            </Array>
          </mxGeometry>
        </mxCell>
        <mxCell id="A5oisQulZktVafH1AsK--60" value="A" style="edgeLabel;html=1;align=center;verticalAlign=middle;resizable=0;points=[];" parent="A5oisQulZktVafH1AsK--59" vertex="1" connectable="0">
          <mxGeometry x="-0.1867" y="1" relative="1" as="geometry">
            <mxPoint x="9" y="-6" as="offset" />
          </mxGeometry>
        </mxCell>
      </root>
    </mxGraphModel>
  </diagram>
</mxfile>
